HIERARCHY
ROOT Hips
{
  OFFSET 47.6178 95.6889 22.2315
  CHANNELS 6 Xposition Yposition Zposition Zrotation Xrotation Yrotation
  JOINT spine
  {
    OFFSET 0 8.13249 0.467659
    CHANNELS 3 Zrotation Xrotation Yrotation
    JOINT spine1
    {
      OFFSET 0 10.3498 0
      CHANNELS 3 Zrotation Xrotation Yrotation
      JOINT spine2
      {
        OFFSET 0 9.91699 0
        CHANNELS 3 Zrotation Xrotation Yrotation
        JOINT Neck
        {
          OFFSET 0 25.461 1.2139
          CHANNELS 3 Zrotation Xrotation Yrotation
          JOINT Head
          {
            OFFSET 0 7.69245 0
            CHANNELS 3 Zrotation Xrotation Yrotation
            End Site
            {
              OFFSET 0 18.62 -6.14063
            }
          }
        }
        JOINT RightShoulder
        {
          OFFSET -4.17575 10.7096 -0.581445
          CHANNELS 3 Zrotation Xrotation Yrotation
          JOINT RightArm
          {
            OFFSET 0 14.0466 0
            CHANNELS 3 Zrotation Xrotation Yrotation
            JOINT RightArmRoll
            {
              OFFSET 0 7.09098 0
              CHANNELS 3 Zrotation Xrotation Yrotation
              JOINT RightForeArm
              {
                OFFSET 0 20.6535 0
                CHANNELS 3 Zrotation Xrotation Yrotation
                JOINT RightForeArmRoll
                {
                  OFFSET 0 7.95718 0
                  CHANNELS 3 Zrotation Xrotation Yrotation
                  JOINT RightHand
                  {
                    OFFSET 0 15.9683 0
                    CHANNELS 3 Zrotation Xrotation Yrotation
                    End Site
                    {
                      OFFSET 0 0 0
                    }
                  }
                }
              }
            }
          }
        }
        JOINT LeftShoulder
        {
          OFFSET 4.17575 10.7096 -0.581445
          CHANNELS 3 Zrotation Xrotation Yrotation
          JOINT LeftArm
          {
            OFFSET 0 14.0466 0
            CHANNELS 3 Zrotation Xrotation Yrotation
            JOINT LeftArmRoll
            {
              OFFSET 0 7.09098 0
              CHANNELS 3 Zrotation Xrotation Yrotation
              JOINT LeftForeArm
              {
                OFFSET 0 20.6535 0
                CHANNELS 3 Zrotation Xrotation Yrotation
                JOINT LeftForeArmRoll
                {
                  OFFSET 0 7.95718 0
                  CHANNELS 3 Zrotation Xrotation Yrotation
                  JOINT LeftHand
                  {
                    OFFSET 0 15.9683 0
                    CHANNELS 3 Zrotation Xrotation Yrotation
                    End Site
                    {
                      OFFSET 0 0 0
                    }
                  }
                }
              }
            }
          }
        }
      }
    }
  }
  JOINT RightUpLeg
  {
    OFFSET -7.20834 -1.32182 -1.10884
    CHANNELS 3 Zrotation Xrotation Yrotation
    JOINT RightUpLegRoll
    {
      OFFSET 0 18.7238 0
      CHANNELS 3 Zrotation Xrotation Yrotation
      JOINT RightLeg
      {
        OFFSET 0 -23.1866 0
        CHANNELS 3 Zrotation Xrotation Yrotation
        JOINT RightLegRoll
        {
          OFFSET 0 23.2624 0
          CHANNELS 3 Zrotation Xrotation Yrotation
          JOINT RightFoot
          {
            OFFSET 0 19.3621 0
            CHANNELS 3 Zrotation Xrotation Yrotation
            JOINT RightToeBase
            {
              OFFSET 0 16.1857 0
              CHANNELS 3 Zrotation Xrotation Yrotation
              End Site
              {
                OFFSET 0.00686052 7.83863 -0.903522
              }
            }
          }
        }
      }
    }
  }
  JOINT LeftUpLeg
  {
    OFFSET 7.20834 -1.32182 -1.10884
    CHANNELS 3 Zrotation Xrotation Yrotation
    JOINT LeftUpLegRoll
    {
      OFFSET 0 18.7239 0
      CHANNELS 3 Zrotation Xrotation Yrotation
      JOINT LeftLeg
      {
        OFFSET 0 23.1865 0
        CHANNELS 3 Zrotation Xrotation Yrotation
        JOINT LeftLegRoll
        {
          OFFSET 0 23.4775 0
          CHANNELS 3 Zrotation Xrotation Yrotation
          JOINT LeftFoot
          {
            OFFSET 0 19.147 0
            CHANNELS 3 Zrotation Xrotation Yrotation
            JOINT LeftToeBase
            {
              OFFSET 0 16.1857 0
              CHANNELS 3 Zrotation Xrotation Yrotation
              End Site
              {
                OFFSET -0.0307459 7.83863 -0.903522
              }
            }
          }
        }
      }
    }
  }
}
MOTION
Frames: 10
Frame Time: 0.00208333
51.9009 96.1822 11.1776 0.351869 -5.27929 -2.38648 0.368693 -0.91874 0.0707974 0.740357 2.16493 0.0994925 0.739885 3.80993 0.0871497 -6.2328 11.3731 0.262083 3.72184 0.463485 -0.960753 56.706 -9.25707 -5.72592 112.723 20.6996 24.1414 -1.93257e-006 -2.21788e-006 2.31616e-006 2.12259 0.0202546 -0.430312 -6.87953e-006 -5.96574e-006 -3.00718 8.03 -4.95138 0.697626 -62.2944 -9.91236 6.18251 -108.228 15.9714 -9.47311 1.86745e-005 -4.99846e-007 2.89933e-006 -8.71833 0.0695291 0.911517 3.14485e-006 -8.08222e-007 3.00372 -8.02907 -4.95144 -0.697667 172.726 3.39613 3.92595 180 7.01563e-015 178.995 178.689 14.7523 179.572 6.43784e-007 7.63522e-007 0.226031 -19.1317 69.771 21.0972 8.13199 25.2338 -3.48458 -175.192 0.142978 -0.35507 4.5067e-006 -1.99009e-005 -1.11339 -0.593753 -12.6958 0.440961 -2.07695e-006 -1.85518e-007 -0.226296 19.6895 70.4691 -21.7559 -8.13702 25.2405 3.48657 
51.8817 96.1754 11.1423 0.353314 -5.27249 -2.37936 0.370428 -0.920028 0.0725517 0.74369 2.16164 0.102809 0.74318 3.80663 0.0904122 -6.24815 11.3888 0.260901 3.72375 0.446555 -0.965957 56.6852 -9.25971 -5.72737 112.735 20.6868 24.1356 -1.93257e-006 -2.21788e-006 2.31616e-006 2.12922 0.0198815 -0.430299 -6.87953e-006 -5.96574e-006 -3.00718 8.03 -4.95138 0.697626 -62.3168 -9.89129 6.17029 -108.206 15.9713 -9.47237 1.86745e-005 -4.99846e-007 2.89933e-006 -8.7213 0.0695285 0.910927 3.14485e-006 -8.08222e-007 3.00372 -8.02907 -4.95144 -0.697667 172.729 3.40788 3.92407 180 7.01563e-015 178.996 178.69 14.7689 179.572 6.43784e-007 7.63522e-007 0.226033 -19.136 69.7758 21.1007 8.13199 25.2338 -3.48458 -175.193 0.165773 -0.351975 4.5067e-006 -1.99009e-005 -1.11324 -0.589659 -12.7251 0.441881 -2.07695e-006 -1.85518e-007 -0.227002 19.7022 70.4823 -21.767 -8.13702 25.2405 3.48657 
51.8723 96.1747 11.1578 0.354815 -5.26551 -2.37233 0.372222 -0.921372 0.0743852 0.747143 2.15817 0.10627 0.746592 3.80316 0.0938175 -6.26377 11.4053 0.259603 3.7256 0.42921 -0.971377 56.664 -9.26245 -5.72887 112.747 20.6735 24.1304 -1.93257e-006 -2.21788e-006 2.31616e-006 2.13566 0.0193264 -0.430278 -6.87953e-006 -5.96574e-006 -3.00718 8.03 -4.95138 0.697626 -62.3399 -9.86965 6.15775 -108.183 15.9711 -9.47174 1.86745e-005 -4.99846e-007 2.89933e-006 -8.72433 0.069528 0.910352 3.14485e-006 -8.08222e-007 3.00372 -8.02907 -4.95144 -0.697667 172.733 3.42103 3.92054 180 7.01563e-015 178.996 178.693 14.7875 179.572 6.43784e-007 7.63522e-007 0.226032 -19.1394 69.7812 21.1047 8.13199 25.2338 -3.48458 -175.194 0.189947 -0.348971 4.5067e-006 -1.99009e-005 -1.11302 -0.585625 -12.7571 0.442905 -2.07695e-006 -1.85518e-007 -0.227755 19.7155 70.4969 -21.7793 -8.13702 25.2405 3.48657 
51.8822 96.1813 11.1965 0.356356 -5.25841 -2.36536 0.374058 -0.922756 0.0762743 0.750678 2.15456 0.109833 0.750087 3.79955 0.0973228 -6.27957 11.4223 0.258223 3.72742 0.411575 -0.976947 56.6426 -9.26524 -5.73041 112.758 20.6599 24.1256 -1.93257e-006 -2.21788e-006 2.31616e-006 2.14196 0.018644 -0.430251 -6.87953e-006 -5.96574e-006 -3.00718 8.03 -4.95138 0.697626 -62.3635 -9.84763 6.14498 -108.161 15.9708 -9.4712 1.86745e-005 -4.99846e-007 2.89933e-006 -8.72738 0.0695274 0.909788 3.14485e-006 -8.08222e-007 3.00372 -8.02907 -4.95144 -0.697667 172.738 3.43515 3.91588 180 7.01563e-015 178.996 178.697 14.8077 179.571 6.43784e-007 7.63522e-007 0.22603 -19.1421 69.7871 21.1091 8.13199 25.2338 -3.48458 -175.195 0.215085 -0.346031 4.5067e-006 -1.99009e-005 -1.11273 -0.581633 -12.7909 0.444002 -2.07695e-006 -1.85518e-007 -0.228541 19.7293 70.5124 -21.7924 -8.13702 25.2405 3.48657 
51.8769 96.1787 11.1918 0.357919 -5.25124 -2.35843 0.375917 -0.924162 0.0781951 0.754262 2.15088 0.113454 0.753628 3.79587 0.100885 -6.29547 11.4396 0.256797 3.72922 0.393775 -0.982603 56.621 -9.26808 -5.73197 112.77 20.6462 24.1209 -1.93257e-006 -2.21788e-006 2.31616e-006 2.14818 0.0178888 -0.430222 -6.87953e-006 -5.96574e-006 -3.00718 8.03 -4.95138 0.697626 -62.3873 -9.82538 6.13208 -108.137 15.9704 -9.47071 1.86745e-005 -4.99846e-007 2.89933e-006 -8.73045 0.0695268 0.90923 3.14485e-006 -8.08222e-007 3.00372 -8.02907 -4.95144 -0.697667 172.743 3.44982 3.91055 180 7.01563e-015 178.997 178.702 14.8288 179.571 6.43784e-007 7.63522e-007 0.226028 -19.1444 69.7931 21.1136 8.13199 25.2338 -3.48458 -175.196 0.240776 -0.343127 4.5067e-006 -1.99009e-005 -1.11241 -0.577664 -12.8258 0.445141 -2.07695e-006 -1.85518e-007 -0.229345 19.7433 70.5285 -21.806 -8.13702 25.2405 3.48657 
51.8862 96.1759 11.2083 0.359485 -5.24404 -2.3515 0.377783 -0.925574 0.0801238 0.757858 2.14718 0.117089 0.757182 3.79217 0.104462 -6.31139 11.457 0.255359 3.73101 0.375933 -0.988281 56.5993 -9.27092 -5.73354 112.782 20.6324 24.1164 -1.93257e-006 -2.21788e-006 2.31616e-006 2.15439 0.0171154 -0.430191 -6.87953e-006 -5.96574e-006 -3.00718 8.03 -4.95138 0.697626 -62.4112 -9.80307 6.11916 -108.114 15.9701 -9.47024 1.86745e-005 -4.99846e-007 2.89933e-006 -8.73353 0.0695262 0.908674 3.14485e-006 -8.08222e-007 3.00372 -8.02907 -4.95144 -0.697667 172.748 3.46464 3.90506 180 7.01563e-015 178.997 178.707 14.85 179.57 6.43784e-007 7.63522e-007 0.226024 -19.1467 69.7993 21.1182 8.13199 25.2338 -3.48458 -175.196 0.266604 -0.340232 4.5067e-006 -1.99009e-005 -1.11208 -0.5737 -12.8609 0.44629 -2.07695e-006 -1.85518e-007 -0.230155 19.7574 70.5446 -21.8197 -8.13702 25.2405 3.48657 
51.8761 96.1755 11.2141 0.361039 -5.23688 -2.34456 0.379637 -0.926974 0.0820367 0.761431 2.14352 0.120695 0.760713 3.78851 0.10801 -6.32727 11.4742 0.253944 3.73281 0.358174 -0.993916 56.5778 -9.27374 -5.73509 112.794 20.6187 24.1117 -1.93257e-006 -2.21788e-006 2.31616e-006 2.16063 0.0163783 -0.430162 -6.87953e-006 -5.96574e-006 -3.00718 8.03 -4.95138 0.697626 -62.435 -9.78087 6.1063 -108.091 15.9697 -9.46973 1.86745e-005 -4.99846e-007 2.89933e-006 -8.7366 0.0695257 0.908114 3.14485e-006 -8.08222e-007 3.00372 -8.02907 -4.95144 -0.697667 172.753 3.47918 3.8999 180 7.01564e-015 178.998 178.712 14.8709 179.569 6.43784e-007 7.63522e-007 0.226022 -19.1492 69.8053 21.1227 8.13199 25.2338 -3.48458 -175.197 0.292156 -0.33732 4.5067e-006 -1.99009e-005 -1.11176 -0.569722 -12.8955 0.44742 -2.07695e-006 -1.85518e-007 -0.230955 19.7714 70.5605 -21.8332 -8.13702 25.2405 3.48657 
51.88 96.1737 11.2202 0.362561 -5.22982 -2.33757 0.381461 -0.928346 0.0839099 0.764944 2.13995 0.124229 0.764186 3.78494 0.111487 -6.34301 11.4911 0.252587 3.73462 0.340622 -0.999444 56.5564 -9.27652 -5.73662 112.806 20.6053 24.1067 -1.93257e-006 -2.21788e-006 2.31616e-006 2.16697 0.0157323 -0.430137 -6.87953e-006 -5.96574e-006 -3.00718 8.03 -4.95138 0.697626 -62.4584 -9.75895 6.0936 -108.068 15.9694 -9.46917 1.86745e-005 -4.99846e-007 2.89933e-006 -8.73965 0.0695251 0.907547 3.14485e-006 -8.08222e-007 3.00372 -8.02907 -4.95144 -0.697667 172.757 3.49302 3.89556 180 7.01564e-015 178.998 178.716 14.8906 179.569 6.43784e-007 7.63522e-007 0.22602 -19.1521 69.8111 21.127 8.13199 25.2338 -3.48458 -175.198 0.317019 -0.334361 4.5067e-006 -1.99009e-005 -1.11149 -0.565712 -12.9288 0.448498 -2.07695e-006 -1.85518e-007 -0.231731 19.7851 70.5758 -21.8462 -8.13702 25.2405 3.48657 
51.8789 96.1732 11.2298 0.364034 -5.22289 -2.33052 0.383238 -0.929674 0.0857197 0.768363 2.13653 0.127646 0.767566 3.78152 0.114849 -6.35854 11.5073 0.251323 3.73647 0.323402 -1.0048 56.5353 -9.27923 -5.73811 112.818 20.5921 24.1014 -1.93257e-006 -2.21788e-006 2.31616e-006 2.17347 0.0152318 -0.430118 -6.87953e-006 -5.96574e-006 -3.00718 8.03 -4.95138 0.697626 -62.4812 -9.73748 6.08117 -108.046 15.9693 -9.46851 1.86745e-005 -4.99846e-007 2.89933e-006 -8.74265 0.0695245 0.906968 3.14485e-006 -8.08222e-007 3.00372 -8.02907 -4.95144 -0.697667 172.761 3.50575 3.89254 180 7.01564e-015 178.998 178.718 14.9087 179.568 6.43784e-007 7.63522e-007 0.226021 -19.1557 69.8163 21.1309 8.13199 25.2338 -3.48458 -175.199 0.34078 -0.33133 4.5067e-006 -1.99009e-005 -1.11129 -0.561653 -12.96 0.449494 -2.07695e-006 -1.85518e-007 -0.23247 19.7984 70.5899 -21.8582 -8.13702 25.2405 3.48657 
51.8743 96.1722 11.2288 0.365441 -5.21616 -2.32337 0.38495 -0.930939 0.0874422 0.771652 2.13331 0.130905 0.770817 3.7783 0.118054 -6.37379 11.5228 0.250187 3.73838 0.306638 -1.00992 56.5148 -9.28183 -5.73954 112.83 20.5795 24.0955 -1.93257e-006 -2.21788e-006 2.31616e-006 2.18017 0.0149315 -0.430108 -6.87953e-006 -5.96574e-006 -3.00718 8.03 -4.95138 0.697626 -62.5033 -9.71662 6.0691 -108.024 15.9692 -9.46771 1.86745e-005 -4.99846e-007 2.89933e-006 -8.74561 0.069524 0.906373 3.14485e-006 -8.08222e-007 3.00372 -8.02907 -4.95144 -0.697667 172.764 3.51694 3.89131 180 7.01564e-015 178.999 178.718 14.9244 179.569 6.43784e-007 7.63522e-007 0.226023 -19.1604 69.8208 21.1342 8.13199 25.2338 -3.48458 -175.2 0.363023 -0.328199 4.5067e-006 -1.99009e-005 -1.11119 -0.557526 -12.9883 0.450375 -2.07695e-006 -1.85518e-007 -0.233157 19.8109 70.6026 -21.869 -8.13702 25.2405 3.48657 
